<svg width="888" height="452" viewBox="0 0 888 452" fill="none" xmlns="http://www.w3.org/2000/svg">
<path d="M206.472 41.4702C206.153 38.9454 205.507 36.4729 204.551 34.1145C204.429 33.6685 204.216 33.2528 203.925 32.8939C203.633 32.535 203.271 32.2406 202.859 32.0297C202.31 31.8867 201.733 31.8803 201.181 32.0109L192.561 33.3304C191.84 33.3633 191.149 33.6319 190.595 34.0948C189.472 35.276 190.578 37.1779 190.543 38.8074C190.505 40.6398 188.877 42.1271 187.112 42.6192C185.311 42.9834 183.453 42.9603 181.661 42.5516L169.609 40.6778C173.158 39.5441 176.318 37.4348 178.727 34.5907C180.313 32.7109 181.156 29.2015 178.864 28.3113C178.183 28.1244 177.473 28.0673 176.771 28.1432C171.31 28.1857 167.013 23.6244 161.901 21.7034C158.63 20.5533 155.078 20.4678 151.755 21.4589C148.431 22.4501 145.506 24.4672 143.398 27.2218L149.819 27.5315C150.423 27.4981 151.022 27.6579 151.529 27.9878C152.936 29.1444 151.186 31.3659 151.385 33.177C151.642 35.5299 154.765 36.0323 157.119 36.2703C159.473 36.5082 162.459 38.4216 161.327 40.5C149.496 44.5771 137.456 32.5301 125.03 34.013C121.885 34.3884 118.916 35.6244 115.845 36.4016C97.0889 41.1493 77.6983 28.4818 58.5377 31.1646C54.2781 31.8911 50.0916 32.9957 46.0279 34.4654C43.4201 35.322 40.7001 36.2477 38.8053 38.2344C36.9105 40.2211 36.1893 43.6187 37.9844 45.696C33.0368 46.1036 28.0562 45.63 23.274 44.2971C24.5672 45.0163 25.643 46.0705 26.3885 47.349C27.1341 48.6276 27.5218 50.0834 27.511 51.5636C19.786 52.8239 12.2655 55.118 5.15189 58.3843C6.47957 60.5931 8.03029 62.6598 9.7797 64.5519L0 70.8376C3.30405 71.6704 5.01232 76.1778 3.0909 78.9929C6.51682 77.4681 8.64005 73.5237 12.3035 72.7239C14.7036 72.2 17.1457 73.1823 19.4225 74.105C21.6993 75.0277 24.2017 75.9225 26.5587 75.2299C28.9157 74.5374 30.6542 71.4799 29.1565 69.5318C39.2309 66.5911 49.6425 64.9637 60.1334 64.69C60.9427 64.5883 61.7635 64.7442 62.4794 65.1354C63.845 66.0833 63.4857 68.1306 63.4122 69.7919C63.3386 71.4531 64.6328 73.6364 66.1169 72.8876C64.3708 74.4024 65.8635 77.2539 67.5386 78.8468C69.2137 80.4396 71.2327 82.6375 70.2072 84.7094C69.9395 85.2502 69.4855 85.6829 69.228 86.2286C68.4678 87.8393 69.6748 89.717 71.0984 90.7867C72.5221 91.8563 74.2659 92.6038 75.2548 94.085C76.2438 95.5662 75.7947 98.1588 74.0263 98.3656L69 91.981C67.2827 93.7625 66.1054 95.9945 65.6046 98.4182C70.9346 102.777 71.7363 111.65 67.2741 116.895C64.9938 119.575 61.751 121.203 58.9208 123.294C56.0906 125.384 53.4717 128.361 53.4788 131.881C53.4911 137.961 52.9945 143.611 55.2721 149.248C59.4719 159.643 64.3207 169.764 69.7899 179.551C71.2261 182.12 73.0823 184.937 75.9918 185.38C72.3148 176.424 69.0047 167.329 66.0616 158.095C67.9785 158.102 70.1937 158.255 71.3174 159.808C72.248 161.095 72.0481 162.844 72.3372 164.406C72.705 165.918 73.3182 167.361 74.1525 168.675L91.7114 199.967C93.167 202.561 94.8367 205.345 97.6187 206.396C99.3973 207.067 101.455 206.941 103.092 207.908C104.375 208.666 105.24 210.011 106.548 210.725C110.247 212.744 115.39 208.872 118.847 211.283C119.835 211.972 120.464 213.067 121.375 213.856C124.568 216.622 129.805 214.771 133.49 216.835C135.865 218.164 137.096 220.824 138.363 223.234C141.537 229.271 146.671 235.186 153.472 235.666C155.609 235.817 157.791 235.412 159.879 235.887C161.967 236.363 164.023 238.186 163.688 240.302C163.113 243.93 164.905 247.903 164.424 251.544C163.547 258.178 154.143 261.093 153.335 267.735C153.158 269.189 153.435 270.69 153.089 272.113C152.664 273.858 151.355 275.278 150.889 277.013C150.008 280.299 152.361 283.569 154.946 285.78C157.532 287.991 160.615 289.897 162.029 292.992C163.523 296.264 162.789 300.078 163.275 303.641C164.335 311.421 171.052 317.188 177.964 320.906C180.07 322.039 182.331 323.136 183.694 325.102C185.473 327.667 185.296 331.049 185.89 334.114C187.345 341.621 193.662 347.807 193.841 355.451C193.968 360.885 190.949 365.814 189.146 370.941C187.455 375.853 186.843 381.072 187.352 386.242C187.861 391.412 189.478 396.412 192.094 400.9C193.443 403.179 195.057 405.328 196.011 407.798C197.714 412.207 197.162 417.219 198.732 421.677C200.808 427.571 206.513 432.439 205.967 438.664C208.556 444.045 214.275 446.689 220.026 448.29L230.332 451.16C232.305 451.71 234.367 452.264 236.377 451.866C238.386 451.468 240.304 449.799 240.252 447.75C235.198 446.61 229.982 445.397 225.816 442.316C221.65 439.235 218.796 433.748 220.376 428.812C221.109 426.523 222.669 423.88 221.186 421.988C220.337 420.906 218.785 420.623 217.828 419.635C216.334 418.094 216.847 415.505 217.921 413.647C218.995 411.788 220.546 410.128 220.979 408.025C221.198 406.849 221.052 405.635 220.561 404.544C220.07 403.453 219.257 402.539 218.232 401.924C220.143 401.202 221.881 400.086 223.333 398.649C224.674 397.116 225.294 394.753 224.239 393.011C227.372 393.409 231.072 393.603 233.129 391.205C234.772 389.29 234.659 386.427 234.01 383.988C233.361 381.549 232.264 379.181 232.23 376.657C239.459 377 246.704 376.754 253.893 375.922C252.854 372.42 250.491 369.46 247.307 367.67C250.563 367.119 253.529 363.219 254.558 360.08C255.587 356.94 255.324 353.521 254.688 350.279C254.444 349.444 254.411 348.562 254.591 347.711C254.958 346.542 256.105 345.828 257.167 345.218L273.329 335.932C274.294 335.449 275.168 334.803 275.914 334.024C277.607 332.034 277.356 329.03 276.489 326.565C275.622 324.1 274.233 321.782 273.899 319.19C272.9 311.438 281.195 305.877 283.994 298.58C285.092 295.717 285.316 292.604 285.529 289.544C285.757 286.258 285.774 282.441 283.252 280.323C280.834 278.293 277.056 278.746 274.526 276.858C272.207 275.126 271.407 271.764 268.873 270.366C266.572 269.096 263.687 269.903 261.127 269.306C256.621 268.255 253.785 263.059 249.183 262.578C246.587 262.306 243.648 263.576 241.52 262.063C239.645 260.73 239.569 258.051 239.213 255.777C238.587 252.244 236.894 248.987 234.362 246.445C231.83 243.904 228.58 242.2 225.05 241.563C222.373 241.133 219.459 241.296 217.181 239.824C214.875 238.334 213.817 235.543 212.006 233.479C209.086 230.153 204.488 228.971 200.18 227.958L182.659 223.837C179.549 223.105 175.539 222.717 173.87 225.443C173.376 226.481 173.026 227.582 172.831 228.715C172.205 230.764 170.947 232.562 169.236 233.85C167.525 235.138 165.449 235.851 163.308 235.885C161.84 233.379 159.461 231.538 156.668 230.745C154.891 230.249 152.989 230.194 151.295 229.465C150.372 229.015 149.551 228.381 148.881 227.601C148.212 226.822 147.709 225.915 147.402 224.934C147.095 223.954 146.992 222.921 147.098 221.899C147.205 220.877 147.518 219.888 148.02 218.991C149.03 217.192 149.42 215.11 149.13 213.067C148.84 211.023 147.886 209.132 146.414 207.686C143.435 205.009 139.124 204.363 135.129 204.631C134.083 202.346 135.832 199.769 137.718 198.109C139.603 196.449 141.893 194.817 142.303 192.338C142.949 188.439 137.976 185.477 134.2 186.64C130.424 187.802 128.014 191.472 126.421 195.089C125.507 197.164 124.73 199.349 123.288 201.099C121.846 202.849 119.524 204.102 117.328 203.54C114.219 202.745 113.018 199.05 112.33 195.914C111.406 191.706 110.478 187.441 110.671 183.137C110.865 178.834 112.315 174.416 115.486 171.503C120.655 166.755 128.584 167.221 135.559 167.978C133.911 166.12 134.318 162.99 136.082 161.241C137.012 160.414 138.131 159.826 139.34 159.529C140.549 159.232 141.813 159.234 143.021 159.536C145.123 159.974 147.016 161.106 148.396 162.751C150.379 165.169 150.942 168.434 152.44 171.178C153.939 173.922 157.308 176.263 160.065 174.791C162.447 173.519 162.825 170.215 162.232 167.58C161.639 164.945 160.38 162.383 160.595 159.69C161.005 154.553 166.328 151.461 171.025 149.345C175.722 147.229 181.101 144.384 181.845 139.284C181.871 138.286 182.059 137.298 182.403 136.36C182.923 135.532 183.647 134.851 184.506 134.381C198.215 125.318 212.152 116.143 227.821 111.19C228.636 110.933 228.732 111.219 229.562 111.017C230.725 110.345 229.955 108.485 228.84 107.736C227.725 106.987 226.235 106.412 225.952 105.099C225.744 104.133 226.313 103.185 226.461 102.209C226.824 99.8091 223.954 97.5936 221.726 98.5529C220.467 96.8853 222.958 94.9476 224.972 94.3929C231.019 92.728 237.226 91.7135 243.488 91.3667C244.211 91.2518 244.951 91.3778 245.595 91.7253C246.647 92.4542 246.513 94.126 245.767 95.1664C245.022 96.2068 243.862 96.86 242.934 97.7404C241.919 98.7295 241.195 99.9785 240.841 101.351C240.487 102.724 240.517 104.167 240.927 105.524C244.196 107.188 247.751 108.9 251.371 108.314C254.992 107.728 258.206 103.658 256.504 100.407C254.919 97.3803 250.158 96.6975 249.34 93.38C248.381 89.4957 253.877 86.0411 252.639 82.2367C252.097 80.5703 250.437 79.5896 249.163 78.3865C247.659 76.9114 246.636 75.0156 246.228 72.9481C245.82 70.8806 246.047 68.7381 246.878 66.8018C244.803 67.167 242.671 67.0291 240.661 66.3996C238.65 65.7702 236.82 64.6676 235.323 63.1844C232.56 60.3939 230.355 55.992 226.43 56.1169C222.829 56.2314 219.727 60.435 216.359 59.1526C215.53 58.8371 214.657 58.1949 213.854 58.5712C213.591 58.7421 213.37 58.9705 213.209 59.2393C213.047 59.5081 212.948 59.8102 212.92 60.1227C212.064 64.2161 213.536 68.88 211.306 72.4171C208.88 76.2663 203.267 76.7999 200.325 80.2709C198.728 82.155 198.109 84.6939 196.641 86.6803C195.174 88.6668 192.058 89.9297 190.297 88.1986C191.162 86.4181 191.399 84.3963 190.967 82.4639C190.536 80.5315 189.462 78.8026 187.921 77.5599C186.285 76.4924 184.522 75.6345 182.673 75.0064C180.607 74.1314 178.642 73.0354 176.811 71.7377C175.894 71.1842 175.149 70.3866 174.659 69.4339C174.271 68.2409 174.324 66.9486 174.806 65.7908C175.699 63.2287 177.275 60.9593 179.363 59.2277C181.452 57.4961 183.973 56.3681 186.655 55.9654C189.001 55.6461 191.73 55.7586 193.283 53.9707C194.104 53.0248 194.535 51.5945 195.727 51.2103C196.489 51.057 197.281 51.1546 197.984 51.4884L206.738 54.5711C207.715 55.0123 208.79 55.1902 209.857 55.0871C210.385 55.0158 210.868 54.7471 211.207 54.3348C211.546 53.9225 211.717 53.3971 211.685 52.8641C211.405 51.4097 209.168 50.7117 209.372 49.2447C209.486 48.7693 209.741 48.3396 210.104 48.0125C213.264 44.6483 217.127 42.0246 221.419 40.3292C225.71 38.6337 230.323 37.9085 234.928 38.2054C236.033 40.021 234.285 42.1709 232.831 43.7208C231.377 45.2706 230.209 48.0399 231.967 49.2329C232.688 49.6009 233.489 49.7815 234.298 49.7581C236.453 50.05 238.548 50.6856 240.502 51.6407C243.527 52.9578 246.494 54.3989 249.403 55.9639C249.146 54.045 248.901 52.0235 249.628 50.2293C250.355 48.435 252.421 47.0277 254.226 47.7265C255.965 48.3999 256.857 50.7039 258.71 50.915C261.182 51.1966 262.157 47.5433 261.125 45.2789C260.092 43.0144 258.048 41.1183 257.878 38.6353C257.763 36.9601 258.4 34.8826 257.062 33.8682C256.586 33.5637 256.046 33.3741 255.484 33.3146L222.088 27.1664C220.105 26.8013 217.24 27.0811 217.152 29.0965C217.103 30.2215 218.107 31.3345 217.662 32.3688C217.188 33.4728 215.628 33.3718 214.492 33.7623C212.729 34.3681 211.844 36.4623 212.014 38.3194C212.324 40.1646 213.038 41.9184 214.105 43.4549C211.933 42.546 208.644 42.379 206.472 41.4702Z" fill="#CBD0D6"/>
<path d="M179.83 13.1025C177.724 12.4053 175.455 12.3728 173.33 13.0095C171.205 13.6462 169.327 14.9212 167.95 16.6617C167.401 17.3861 166.939 18.3846 167.399 19.1689C168.059 20.2934 169.741 19.8493 170.981 19.447C172.803 18.7957 174.787 18.7483 176.638 19.312C177.802 19.7119 178.844 20.4187 180.013 20.8035C180.582 21.0416 181.205 21.1203 181.816 21.0311C182.426 20.9418 183.001 20.688 183.478 20.2968C184.281 19.478 184.331 18.205 184.333 17.0582C184.388 16.6745 184.358 16.2832 184.243 15.9128C184.128 15.5425 183.932 15.2024 183.669 14.9175C183.201 14.6463 182.675 14.4907 182.135 14.4635C180.925 14.2395 179.831 13.6001 179.042 12.6556" fill="#CBD0D6"/>
<path d="M191.869 9.74626C191.398 9.72058 190.928 9.81664 190.505 10.0252C190.081 10.2337 189.719 10.5478 189.452 10.9371C189.184 11.3264 189.022 11.778 188.98 12.2482C188.938 12.7185 189.017 13.1918 189.21 13.6225C190.658 14.0174 192.17 14.116 193.656 13.9125C194.398 13.7974 195.088 13.4652 195.641 12.958C196.194 12.4508 196.585 11.7911 196.764 11.0622C195.014 11.3808 193.208 11.0358 191.698 10.0944" fill="#CBD0D6"/>
<path d="M232.268 4.14727C228.328 4.98517 224.502 6.28567 220.867 8.02173C222.581 8.6806 224.037 9.87267 225.022 11.4223C226.007 12.9719 226.468 14.797 226.338 16.6288C226.184 17.332 226.202 18.0619 226.39 18.7568C226.808 19.7723 228.022 20.1534 229.088 20.414C231.005 20.9975 233.006 21.253 235.007 21.1698C236.008 21.1174 236.981 20.8161 237.836 20.2931C238.692 19.7701 239.403 19.042 239.907 18.1746C240.197 17.3513 240.537 16.5467 240.926 15.7651C243.482 11.8695 251.078 16.5798 253.823 12.8147C254.79 11.4884 254.701 9.49188 255.962 8.44088C256.614 7.98299 257.37 7.69448 258.161 7.60131C263.681 6.50404 269.257 5.70951 274.864 5.22129C277.521 4.98999 280.984 4.03561 281.006 1.36775C270.999 -0.598442 260.623 0.798021 251.492 5.34003C248.202 6.98866 243.85 10.4566 240.681 8.27092C239.494 7.45256 239.553 5.24893 237.92 4.3287C236.25 3.38788 234.04 3.77053 232.268 4.14727Z" fill="#CBD0D6"/>
<path d="M264.995 10.2704L269.692 11.1734C268.828 11.1351 267.965 11.2817 267.161 11.6035C266.358 11.9252 265.632 12.4147 265.032 13.0393C264.433 13.6638 263.974 14.4091 263.685 15.2254C263.396 16.0417 263.285 16.9102 263.358 17.773C267.757 19.2432 272.553 17.8125 277.186 18.0079C281.82 18.2034 287.211 21.5148 286.42 26.0868C286.181 27.4692 285.383 28.8507 285.798 30.1908C286.089 31.13 286.917 31.7965 287.384 32.6616C288.358 34.4642 287.58 36.7442 286.35 38.3829C285.12 40.0215 283.468 41.329 282.388 43.0704C279.704 47.4016 281.229 53.0009 282.828 57.8396C283.29 59.6679 284.144 61.3739 285.331 62.8395C287.7 65.3598 291.561 65.579 295.019 65.6295C297.536 65.6662 300.419 65.5419 302.01 63.591C304.088 61.044 302.635 57.0702 304.003 54.081C305.246 51.3662 308.411 50.2016 311.279 49.3755C316.534 47.8622 321.888 46.5757 326.856 44.2899C333.024 41.4515 338.788 37.0282 345.568 36.6628C347.47 36.5603 349.419 36.7849 351.251 36.2635C353.083 35.7422 354.823 34.1575 354.685 32.2569C354.566 30.6331 353.193 29.4406 352.12 28.2165C351.047 26.9923 350.204 25.11 351.19 23.8148L368.96 20.4942C367.701 17.0598 366.72 12.5368 369.614 10.3013C370.658 9.49474 372.057 9.17238 372.946 8.19729C374.461 6.53537 373.699 3.67255 371.95 2.25918C370.2 0.845806 367.835 0.5177 365.594 0.331479C357.802 -0.315919 349.966 0.111868 342.159 0.539988C326.898 1.37687 311.638 2.21375 296.377 3.05062C293.305 3.21909 289.758 2.96172 286.94 4.01027C284.555 4.89798 282.859 6.52746 280.131 7.09996C275.094 8.15687 269.552 7.44168 264.995 10.2704Z" fill="#CBD0D6"/>
<path d="M349.144 47.416C348.665 47.3402 348.175 47.4513 347.776 47.7262C347.512 48.017 347.355 48.389 347.331 48.781C347.028 50.5111 347.389 52.2919 348.343 53.7668C348.828 54.4904 349.499 55.0707 350.284 55.4474C351.07 55.8242 351.942 55.9838 352.81 55.9095C354.925 55.6397 356.484 53.8344 358.428 52.9535C361.425 51.597 374.153 49.4823 365.349 44.7236C362.314 43.0836 360.354 44.5313 357.962 45.6113C355.241 47.0039 352.193 47.6278 349.144 47.416Z" fill="#CBD0D6"/>
<path d="M426.264 7.57918C425.236 7.99938 424.376 8.74836 423.818 9.70916C423.561 10.197 423.501 10.765 423.651 11.2957C423.801 11.8264 424.149 12.279 424.624 12.5601C425.008 12.6994 425.415 12.764 425.823 12.7504L430.003 12.8754C431.779 12.9284 433.997 13.3068 434.474 15.0189C434.829 16.2902 434.036 17.9238 434.993 18.8323C435.403 19.1505 435.897 19.3431 436.415 19.3872C437.792 19.7411 439.23 19.7875 440.627 19.5232C443.668 18.707 442.07 16.8498 443.028 15.1961C444.493 12.6659 444.24 14.1976 446.822 12.7474C448.73 11.6765 451.194 9.73381 449.602 7.00429C446.834 2.25772 430.349 5.54007 426.264 7.57918Z" fill="#CBD0D6"/>
<path d="M508.771 5.19625L506.344 5.52032C500.87 6.25108 495.366 6.98856 490.094 8.63303C492.376 9.5357 494.77 10.1235 497.211 10.3801C498.554 10.446 499.888 10.6358 501.197 10.9471C503.525 11.6405 505.872 13.4314 508.121 12.514C509.516 11.9452 509.971 10.4922 511.127 9.72218C511.925 9.19046 514.951 8.32984 515.289 7.79316C518.024 3.45447 510.873 4.9156 508.771 5.19625Z" fill="#CBD0D6"/>
<path d="M519.424 16.2367C516.181 18.0505 513.173 20.2545 510.466 22.7996C509.326 23.8721 508.161 25.2061 508.264 26.7686C508.402 28.8454 510.613 30.05 512.529 30.8615L520.288 34.1483C521.23 32.8209 520.368 30.9886 519.395 29.6841C518.422 28.3797 517.266 26.8705 517.696 25.3008C518.187 23.5095 520.37 22.8991 522.2 22.5905C525.183 22.0877 533.229 22.128 532.263 17.3189C531.123 11.6523 522.418 14.5623 519.424 16.2367Z" fill="#CBD0D6"/>
<path d="M517.865 336.92C517.126 339.06 517.056 341.58 518.334 343.449C519.768 345.545 522.638 346.326 525.12 345.795C527.593 345.136 529.796 343.719 531.421 341.742C532.907 340.085 534.129 338.21 535.045 336.182C536.323 333.021 537.225 329.721 537.731 326.349L540.14 313.694C540.678 310.865 540.658 302.194 535.461 305.019C534.042 305.791 530.755 311.885 529.268 313.613C526.587 316.727 526.232 319.749 524.82 323.522C523.053 328.248 519.499 332.187 517.865 336.92Z" fill="#CBD0D6"/>
<path d="M792.308 401.672C790.607 401.008 788.957 400.222 787.37 399.32C785.779 403.697 784.933 408.311 784.867 412.968L796.502 406.381C798.252 405.391 800.235 404.014 800.198 402.002C800.214 401.754 800.162 401.506 800.049 401.284C799.936 401.063 799.765 400.876 799.555 400.743C799.296 400.639 799.014 400.606 798.739 400.647C797.014 400.791 795.441 401.64 793.813 402.231C792.186 402.821 790.283 403.133 788.79 402.257" fill="#CBD0D6"/>
<path d="M853.69 405.585C852.413 405.933 851.165 406.38 849.959 406.924C847.289 408.283 845.473 410.865 843.07 412.655C840.771 414.368 838.003 415.308 835.286 416.223C834.487 416.929 834.854 418.353 835.722 418.974C836.655 419.505 837.724 419.745 838.794 419.665C841.617 419.727 844.591 419.754 847.063 418.39C848.457 417.486 849.76 416.451 850.956 415.299C853.847 412.886 857.319 411.294 860.755 409.755C862.006 409.283 863.162 408.591 864.17 407.713C866.33 405.584 866.481 402.301 863.368 401.576C860.852 400.991 856.085 404.81 853.69 405.585Z" fill="#CBD0D6"/>
<path d="M880.795 387.862C880.934 386.398 880.74 384.92 880.225 383.542C879.711 382.164 878.89 380.921 877.825 379.906C877.793 382.836 877.704 385.958 876.057 388.381C874.884 390.107 873.043 391.274 871.757 392.918C870.472 394.563 869.901 397.169 871.409 398.612C872.373 399.346 873.547 399.751 874.759 399.766C877.761 400.12 881.236 400.317 883.342 398.147C884.492 396.963 885.051 395.208 886.453 394.337C886.975 394.118 887.441 393.784 887.817 393.36C888.396 392.44 887.476 391.227 886.441 390.895C885.406 390.563 884.265 390.719 883.224 390.404C882.184 390.089 881.229 388.919 881.763 387.971" fill="#CBD0D6"/>
<path d="M832.604 280.436C831.029 280.819 829.397 280.915 827.788 280.72C825.115 280.228 823.035 278.213 820.877 276.56C815.747 272.652 809.511 270.472 803.065 270.334C797.201 270.223 791.283 271.813 785.523 270.703C785.9 272.797 787.691 274.368 789.601 275.301C791.512 276.234 793.621 276.704 795.541 277.619C798.616 279.097 801.055 281.636 802.41 284.768C803.029 286.212 803.418 287.784 804.354 289.044C806.269 291.622 809.898 292.188 813.1 291.977C817.276 291.702 821.637 290.501 825.522 292.057C828.494 293.248 830.62 295.85 833.102 297.873C835.583 299.897 839.078 301.398 841.927 299.938C838.968 298.98 836.392 297.1 834.576 294.573C832.76 292.046 831.798 289.005 831.832 285.893C834.627 286.15 842.676 286.051 842.242 281.3C841.875 277.274 835.003 280.001 832.604 280.436Z" fill="#CBD0D6"/>
<path d="M796.044 313.191C796.54 310.468 799.254 308.064 798.409 305.429C797.824 303.607 795.712 302.707 793.8 302.662C791.887 302.617 790.008 303.187 788.096 303.241C786.852 303.175 785.604 303.192 784.362 303.294C780.566 303.918 778.226 307.899 774.649 309.314C772.473 310.174 770.03 310.01 767.767 310.605C762.632 311.955 759.383 316.81 755.793 320.724C749.993 327.02 742.437 331.429 734.103 333.379C731.183 334.056 728.045 334.488 725.724 336.385C722.65 338.898 721.894 343.205 721.21 347.116C719.321 357.918 716.434 368.521 712.586 378.789L724.78 380.347C727.098 380.643 729.5 380.932 731.734 380.246C733.357 379.633 734.895 378.814 736.308 377.808C741.739 374.435 747.817 372.24 754.149 371.365C757.342 370.926 760.69 370.846 763.687 372.034C766.683 373.221 769.254 375.914 769.505 379.129C770.801 378.725 772.182 378.682 773.501 379.003C774.819 379.323 776.026 379.997 776.992 380.95C778.901 382.897 780.152 385.394 780.567 388.089C780.888 389.758 781.209 391.758 782.757 392.458C784.02 393.029 785.469 392.414 786.85 392.303C791.538 391.928 795.428 397.397 800.036 396.455C804.978 395.445 806.191 388.041 811.013 386.558C813.782 385.706 817.666 386.742 818.991 384.165C820.16 381.894 817.828 379.273 818.069 376.729C818.365 373.598 822.057 372.269 824.903 370.933C834.716 366.326 839.373 353.113 834.618 343.368C831.8 337.594 826.257 333.049 825.233 326.706C824.445 321.826 826.368 316.136 823.258 312.294C821.676 310.34 818.997 309.261 818.056 306.93C817.463 305.462 817.701 303.797 817.383 302.246C817.064 300.696 815.712 299.074 814.181 299.476C809.739 300.643 808.321 314.372 805.943 317.708C802.328 322.778 794.906 319.438 796.044 313.191Z" fill="#CBD0D6"/>
<path d="M713.94 285.628C712.421 285.202 710.764 284.783 709.309 285.391C707.855 286 707.005 288.136 708.173 289.196C717.306 288.84 726.495 288.487 735.55 289.728C745.983 291.158 756.308 294.699 766.787 293.657C760.802 291.89 754.717 290.478 748.565 289.427L738.306 287.466C735.554 286.889 732.774 286.46 729.976 286.178C724.123 285.695 719.694 287.242 713.94 285.628Z" fill="#CBD0D6"/>
<path d="M723.083 253.802C722.325 253.739 721.386 253.684 720.994 254.336C720.619 254.96 721.048 255.783 720.847 256.482C720.571 257.436 719.322 257.68 718.337 257.55C717.353 257.42 716.288 257.109 715.415 257.584C714.973 257.886 714.641 258.324 714.468 258.831C714.295 259.339 714.292 259.888 714.458 260.398C714.815 261.41 715.391 262.33 716.147 263.091C717.437 264.717 718.907 266.192 720.528 267.488C723.667 269.806 727.92 270.923 729.897 274.288C730.176 274.94 730.604 275.517 731.148 275.973C732.097 276.574 733.335 276.117 734.357 275.649L737.939 274.012C738.584 273.78 739.16 273.388 739.613 272.873C740.431 271.762 739.929 270.182 739.242 268.986C738.555 267.789 737.676 266.551 737.823 265.178C738.086 262.732 741.23 261.796 742.523 259.703C743.826 257.594 742.978 254.875 743.128 252.399C743.304 249.504 745.122 245.738 742.196 243.575C739.71 241.737 737.333 243.435 735.548 245.465C731.784 249.745 730.004 254.38 723.083 253.802Z" fill="#CBD0D6"/>
<path d="M744.825 210.539C746.048 212.881 748.597 214.279 749.931 216.56C751.376 219.033 751.212 222.228 752.78 224.625C754.389 227.084 757.626 228.389 758.528 231.186C759.513 234.24 757.279 237.951 759.06 240.619C759.392 241.055 759.811 241.417 760.291 241.683C760.771 241.948 761.3 242.112 761.846 242.162C762.392 242.212 762.942 242.148 763.462 241.974C763.981 241.801 764.46 241.521 764.866 241.153C765.617 240.334 766.019 239.255 765.986 238.145C765.953 237.034 765.488 235.981 764.69 235.208C763.635 234.246 762.121 233.83 761.24 232.707C760.781 232.058 760.476 231.314 760.346 230.53C759.866 228.269 759.943 225.925 760.57 223.7C760.806 223.136 760.866 222.513 760.742 221.914C760.346 220.761 758.785 220.679 757.69 220.144C755.202 218.929 755.263 215.417 755.697 212.682C755.408 214.503 748.925 211.406 748.246 210.375C746.897 208.326 747.631 204.374 747.364 202.109C744.453 203.513 743.33 207.675 744.825 210.539Z" fill="#CBD0D6"/>
<path d="M679.511 246.578C678.314 245.238 676.512 243.836 674.908 244.644C673.684 245.261 673.347 246.955 673.827 248.239C674.411 249.487 675.311 250.56 676.437 251.353C679.78 254.111 683.38 256.601 686.297 259.807C691.516 265.546 694.281 273.289 699.958 278.575C701.099 279.801 702.609 280.619 704.259 280.904C705.913 281.058 707.77 279.999 707.96 278.348C708.116 276.988 707.169 275.771 706.243 274.764C704.038 272.364 701.624 270.155 699.542 267.648C698.581 266.685 697.977 265.423 697.83 264.07C697.819 262.72 699.049 261.307 700.357 261.641C698.767 261.234 697.588 258.584 695.254 258.086C693.304 257.67 692.832 258.878 690.511 257.882C686.084 255.982 682.611 250.05 679.511 246.578Z" fill="#CBD0D6"/>
<path d="M783.525 116.09C782.255 115.713 781.007 115.267 779.785 114.754C776.499 113.767 772.15 116.184 772.588 119.589C772.879 121.851 774.984 123.377 776.146 125.339C777.87 128.249 777.41 131.941 776.504 135.2C776.282 136.209 775.859 137.163 775.261 138.005C774.424 138.895 773.424 139.614 772.315 140.125C767.877 142.615 763.962 145.942 760.789 149.922C760.444 150.29 760.203 150.743 760.093 151.235C759.936 152.384 761.091 153.222 761.744 154.181C763.195 156.311 762.146 159.177 762.29 161.751C762.268 162.115 762.339 162.478 762.497 162.807C762.654 163.135 762.893 163.418 763.191 163.628C764.065 164.073 765.101 163.318 765.575 162.459C767.148 159.608 765.963 155.032 768.914 153.658C769.472 153.398 770.149 153.288 770.521 152.798C771.112 152.02 770.542 150.868 770.841 149.938C771.29 148.541 773.199 148.479 774.664 148.541C777.188 148.646 779.711 148.31 782.119 147.548C783.064 147.323 783.922 146.826 784.587 146.118C785.469 145.017 785.391 143.451 785.214 142.051C784.332 135.071 782.122 128.325 778.704 122.176C781.295 122.507 784.115 122.794 786.352 121.443C787.604 120.686 789.106 118.423 788.484 116.883C787.502 114.448 785.728 116.498 783.525 116.09Z" fill="#CBD0D6"/>
<path d="M451.268 154.483C451.578 156.147 451.883 157.9 451.338 159.502C450.793 161.105 449.078 162.444 447.458 161.953C446.202 161.572 445.476 160.308 444.583 159.344C439.62 153.984 428.423 157.087 425.357 150.455C424.106 147.749 424.956 144.507 424.103 141.65C423.565 139.998 422.493 138.573 421.057 137.597C419.621 136.621 417.902 136.15 416.169 136.257C414.589 136.486 413.05 136.945 411.603 137.621C401.91 141.505 391.734 144.051 381.354 145.19C379.382 145.31 377.43 145.665 375.542 146.248C371.28 147.794 368.368 151.747 366.295 155.78C364.223 159.814 362.693 164.181 359.915 167.765C356.995 171.531 352.903 174.169 349.086 177.022C347.616 177.97 346.391 179.253 345.514 180.767C344.686 182.467 344.733 184.444 344.797 186.333L345.577 209.28C345.678 212.232 345.804 215.289 347.124 217.931C348.773 221.229 352.03 223.389 354.29 226.303C356.596 229.297 357.797 232.997 357.69 236.775C357.642 238.295 357.491 240.091 358.674 241.045C359.393 241.512 360.235 241.754 361.093 241.741L392.12 244.282C397.578 244.729 403.626 245.464 407.19 249.624C408.871 251.587 410.222 254.41 412.798 254.621C413.903 254.711 414.978 254.258 416.083 254.17C418.872 253.949 421.321 256.066 422.867 258.398C425.206 261.953 426.268 266.197 425.878 270.435C425.625 273.095 424.801 275.681 424.623 278.348C423.947 288.493 432.543 297.307 432.71 307.473C432.808 313.453 429.97 319.041 427.204 324.343C431.669 331.109 428.013 340.12 429.79 348.031C431.477 355.537 437.732 361.412 439.29 368.945C440.004 372.394 440.045 376.637 443.085 378.414C444.418 379.064 445.897 379.36 447.378 379.274C456.313 379.38 465.145 377.368 473.153 373.403C476.912 371.537 480.807 368.752 481.463 364.606C481.993 361.262 480.298 357.522 482.023 354.61C484.055 351.177 489.263 351.449 492.254 348.81C497.106 344.529 493.322 336.364 495.288 330.197C497.056 324.654 503.139 321.71 506.154 316.735C507.341 314.595 508.192 312.286 508.679 309.888C510.06 304.157 510.92 298.313 511.248 292.427C511.328 288.851 511.592 285.281 512.038 281.731C515.289 261.525 535.256 247.994 541.739 228.582C542.358 226.728 542.649 224.259 541.001 223.21C540.023 222.743 538.914 222.627 537.861 222.881L523.558 224.685C521.782 224.909 519.899 225.118 518.267 224.38C516.636 223.642 515.466 221.577 516.332 220.009C518.761 215.607 513.764 210.044 511.544 205.532C505.565 193.384 498.446 181.833 490.281 171.033C489.758 170.478 489.431 169.767 489.349 169.008L493.408 169.143C492.038 164.224 489.776 158.841 485 157.042C482.308 156.028 479.327 156.378 476.455 156.535C468.229 156.985 459.41 155.742 451.268 154.483Z" fill="#CBD0D6"/>
<path d="M476.453 43.6236C478.606 45.9106 481.018 48.3353 484.133 48.7339C489.634 49.438 493.589 43.7469 496.107 38.8034C496.201 40.0637 496.782 41.2379 497.727 42.0762C498.672 42.9145 499.907 43.3509 501.168 43.2924C502.526 43.0639 503.822 42.557 504.975 41.8035C515.874 35.8445 528.083 32.6872 540.503 32.6151C540.384 31.6739 540.617 30.7217 541.158 29.9424C541.699 29.1632 542.51 28.612 543.433 28.3953C545.958 27.8944 548.233 30.0787 549.451 32.3477C550.67 34.6167 551.429 37.2467 553.365 38.9451C555.3 40.6435 559.047 40.5695 559.812 38.1101C560.546 35.7489 558.087 33.7353 556.044 32.3432C554.001 30.9512 551.848 28.3746 553.224 26.3203C563.66 24.0092 574.16 21.6893 584.839 21.23C586.657 21.2933 588.469 20.9811 590.161 20.3128C591.789 19.5133 593.084 17.6984 592.646 15.9372C590.316 16.4853 587.875 16.3266 585.635 15.4813C583.395 14.6361 581.458 13.1427 580.07 11.1915C594.887 9.96816 610.647 8.92546 623.778 15.9008C625.354 19.2851 617.323 22.1009 619.472 25.1534C620.157 26.127 621.53 26.2412 622.72 26.2633C631.846 26.4328 641.024 26.599 650.046 25.2207C653.343 24.717 656.673 24.0059 659.984 24.4144C665.497 25.0947 670.213 28.7752 675.638 29.9752C677.845 30.4636 680.321 30.4802 682.182 29.1955C684.043 27.9108 684.843 24.9855 683.318 23.3154C688.425 18.3076 696.902 19.5487 703.639 21.9462C710.377 24.3437 716.76 28.2101 723.892 28.7445C729.005 29.1277 734.19 27.7516 739.243 28.6263C742.418 29.176 745.374 30.5892 748.477 31.4575C754.347 33.0997 760.556 32.753 766.65 32.832C782.2 33.0416 797.579 36.099 812.028 41.8529C813.907 42.4651 815.629 43.483 817.072 44.8346C818.417 46.2749 819.102 48.5131 818.199 50.2642L803.269 48.0817C804.675 50.8521 808.315 51.3243 811.27 52.28C814.225 53.2357 817.29 56.5009 815.513 59.0501C812.311 58.03 809.41 61.233 807.792 64.18C806.174 67.127 804.203 70.6564 800.847 70.8359C797.842 70.9967 794.208 68.4368 792.249 70.7224C794.955 74.1377 797.273 77.844 799.158 81.7728C801.093 85.8061 802.472 90.8882 799.856 94.517C799.445 95.1648 798.82 95.649 798.091 95.8865C795.955 96.4275 794.567 93.8131 793.035 92.2286C791.105 90.2318 788.185 89.6662 785.571 88.7297C782.957 87.7933 780.203 85.9511 779.999 83.1807C779.872 81.4571 780.781 79.8548 781.451 78.2617C782.577 75.5765 783.07 72.6679 782.89 69.7614C782.744 67.4232 782.089 64.9909 780.41 63.3572C778.732 61.7234 775.834 61.2052 774.032 62.7015C773.191 63.3997 772.517 64.5165 771.425 64.5582C769.496 64.6321 768.015 61.2671 766.462 62.4157C766.645 63.6397 766.391 64.8887 765.746 65.9445C761.114 69.9746 753.999 68.2696 748.027 69.6933C745.188 70.5062 742.469 71.694 739.943 73.2252C738.999 73.6294 738.195 74.3046 737.633 75.1655C736.887 76.6146 737.709 78.4706 739.023 79.4341C740.416 80.289 741.982 80.8236 743.607 80.9994C750.887 82.3787 758.272 84.514 764.02 89.1918C769.767 93.8697 773.536 101.603 771.717 108.788L757.361 95.0646C757.907 100.827 758.216 106.605 758.29 112.399C758.383 113.53 758.227 114.668 757.835 115.733C756.811 117.994 754.037 118.755 751.607 119.255C750.931 119.383 750.29 119.653 749.725 120.047C749.161 120.441 748.686 120.95 748.333 121.541C747.979 122.132 747.754 122.79 747.673 123.474C747.592 124.158 747.656 124.851 747.862 125.508C748.725 128.324 750.879 130.52 752.85 132.707C754.822 134.895 756.762 137.382 757.02 140.316C757.278 143.25 755.066 146.558 752.128 146.354C749.902 146.199 748.25 144.205 747.3 142.184C746.35 140.163 745.785 137.912 744.358 136.195C740.039 130.998 730.337 133.225 726.468 127.684C725.481 128.803 724.797 130.156 724.48 131.614C724.164 133.073 724.225 134.587 724.658 136.015C726.458 134.888 728.922 135.935 730.275 137.574C731.627 139.212 732.265 141.312 733.328 143.152C734.761 145.635 737.042 147.836 737.242 150.696C737.189 151.777 737.207 152.861 737.296 153.94C737.652 155.673 739.116 156.917 740.131 158.366C742.493 161.736 742.376 166.367 740.854 170.191C739.331 174.015 736.596 177.21 733.887 180.309C729.155 185.72 724.327 191.099 718.717 195.593C717.116 196.875 715.408 198.136 714.411 199.929C713.414 201.721 713.363 204.238 714.895 205.601C713.799 205.656 711.833 206.196 710.737 206.251C710.351 201.851 710.268 197.431 710.486 193.02C706.16 190.942 701.503 196.507 702.061 201.275C702.619 206.044 706.066 209.87 708.521 213.995C710.315 217.012 711.649 220.53 711.05 223.989C710.451 227.448 707.364 230.639 703.868 230.334C698.308 229.849 695.982 221.863 690.476 220.949C689.99 220.834 689.48 220.885 689.026 221.092C688.209 221.541 688.067 222.635 688.021 223.567C687.796 228.14 687.601 232.894 689.385 237.11C691.995 243.278 698.738 248.458 697.324 255.005C689.704 251.461 685.742 242.912 683.943 234.7C682.144 226.488 681.844 217.867 678.62 210.104C676.171 213.244 671.025 210.648 668.788 207.354C666.667 204.232 665.361 200.619 663.303 197.455C661.246 194.29 658.094 191.456 654.324 191.282C650.372 191.1 646.944 193.813 643.929 196.377C641.451 198.485 638.906 200.676 637.457 203.591C635.348 207.831 635.9 212.831 635.798 217.566C635.688 222.686 634.604 228.087 631.116 231.835C627.629 235.583 621.191 236.888 617.345 233.51C615.336 231.747 614.364 229.112 613.498 226.583C609.323 214.393 605.846 201.974 603.083 189.388C602.437 192.261 599.916 195.963 597.507 194.271C596.966 193.816 596.528 193.252 596.222 192.615C591.729 184.996 583.408 180.427 575.001 177.687C566.594 174.947 557.749 173.669 549.435 170.657C544.776 168.969 540.326 166.752 536.173 164.048C535.114 165.604 534.496 167.418 534.384 169.297C534.271 171.177 534.669 173.051 535.535 174.722C537.38 177.989 541.553 179.88 545.125 178.738C546.971 178.148 548.53 176.865 550.362 176.232C552.194 175.599 554.652 175.91 555.453 177.675C556.22 179.365 555.061 181.41 555.636 183.174C556.511 185.862 560.563 186.069 561.979 188.514C563.033 190.334 562.166 192.75 560.661 194.218C559.156 195.686 557.148 196.492 555.311 197.514C549.35 200.83 545.111 206.491 539.902 210.895C534.692 215.3 527.342 218.515 521.133 215.69C522.613 208.193 513.687 202.689 512.045 195.225C511.504 192.769 511.784 190.159 511.013 187.766C509.895 184.3 506.822 181.917 504.3 179.29C501.242 176.07 498.859 172.269 497.293 168.113C495.727 163.956 495.008 159.528 495.181 155.089C495.317 152.004 495.883 148.87 495.181 145.863C494.478 142.857 491.99 139.947 488.907 140.083C481.866 140.394 472.994 140.918 469.3 134.913C467.981 132.769 467.408 129.63 469.314 127.988C470.659 126.83 472.644 126.939 474.41 127.113L490.276 128.674C493.987 129.039 497.998 129.341 501.183 127.4C504.367 125.459 505.747 120.307 502.798 118.024C500.644 116.355 496.784 116.446 496.158 113.793C495.636 111.584 498.08 109.077 496.76 107.231C495.814 105.907 493.686 106.274 492.396 107.267C491.106 108.259 490.171 109.71 488.728 110.462C486.196 111.78 483.171 110.525 480.447 109.673C477.723 108.82 474.072 108.748 472.75 111.279C471.273 114.109 474.061 117.818 472.595 120.655C470.656 124.405 464.09 122.27 461.368 125.496C458.243 129.197 463.494 134.716 462.44 139.445C461.095 140.111 459.6 140.417 458.101 140.333C456.602 140.249 455.151 139.777 453.889 138.964C452.648 138.12 451.658 136.954 451.026 135.592C450.394 134.229 450.143 132.721 450.3 131.227C450.561 129.1 451.669 126.929 450.926 124.919C450.326 123.293 448.695 122.326 447.179 121.488L431.761 112.964C430.329 115.621 432.139 118.914 434.402 120.91C436.665 122.905 439.5 124.408 440.987 127.034C441.928 128.853 442.138 130.963 441.577 132.933C441.015 134.903 439.722 136.584 437.964 137.632C437.743 137.784 437.492 137.887 437.229 137.933C436.965 137.979 436.694 137.968 436.435 137.899C436.189 137.754 435.975 137.562 435.805 137.333C435.634 137.104 435.512 136.843 435.444 136.566C432.724 129.601 428.639 122.734 422.109 119.095C415.579 115.457 406.196 116.205 401.914 122.334C400.897 123.79 400.215 125.449 399.329 126.988C394.621 135.165 384.53 139.037 375.101 138.784C374.179 138.835 373.261 138.62 372.458 138.163C370.934 137.11 371.003 134.876 371.236 133.038L372.226 125.238C372.425 123.672 372.713 121.94 373.952 120.963C375.699 119.585 378.218 120.454 380.443 120.422C382.128 120.343 383.748 119.748 385.084 118.717C386.419 117.685 387.406 116.268 387.909 114.657C388.358 113.031 388.356 111.312 387.901 109.687C387.446 108.061 386.556 106.591 385.328 105.434C384.309 104.476 382.94 103.273 383.479 101.981C383.694 101.624 383.984 101.318 384.33 101.085C384.675 100.853 385.068 100.698 385.48 100.633C389.475 99.4726 393.697 99.1683 397.626 97.7986C401.555 96.429 405.365 93.6267 406.296 89.5696C406.581 88.3263 406.711 86.8202 407.827 86.2037C408.387 85.9671 408.988 85.8442 409.596 85.842C411.726 85.5388 413.666 84.4489 415.033 82.7867C416.4 81.1246 417.096 79.0107 416.983 76.8611C418.866 75.5448 421.504 76.5131 423.325 77.9131C425.147 79.3132 426.755 81.1629 428.972 81.7664C433.102 82.8911 437.094 79.2322 441.375 79.2152C443.175 79.2081 445.039 79.8449 446.732 79.2343C448.449 78.6153 449.475 76.9054 450.792 75.6422C452.11 74.379 454.422 73.6085 455.639 74.9693L454.603 67.291C456.689 67.8184 458.865 67.8931 460.983 67.51C463.1 67.1269 465.112 66.295 466.882 65.07L453.491 60.5433C453.024 60.4268 452.594 60.1967 452.238 59.8735C451.265 58.8247 452.232 57.1902 453.024 55.998C454.917 53.1459 455.235 48.4477 452.121 47.0277C449.995 46.0585 447.555 47.2219 445.515 48.3601L435.741 53.8124C435.43 55.671 437.702 56.7244 439.11 57.9764C439.962 58.7339 440.564 59.7314 440.839 60.8379C441.114 61.9444 441.048 63.1082 440.649 64.1764C440.251 65.2446 439.539 66.1672 438.606 66.8231C437.674 67.479 436.566 67.8375 435.426 67.8515C436.07 68.6886 436.517 69.6598 436.734 70.6933C436.952 71.7268 436.935 72.796 436.683 73.8217L430.107 74.2949C429.369 74.4435 428.602 74.2937 427.974 73.8784C427.271 73.2535 427.366 72.1584 427.203 71.2315C426.81 68.9944 424.62 67.4265 422.386 67.0245C420.151 66.6224 417.865 67.1378 415.652 67.6466C414.713 67.9848 413.681 67.961 412.758 67.5798C412.229 67.2358 411.826 66.7279 411.613 66.1338C410.643 63.7806 411.549 61.0147 413.107 59.0023C414.666 56.9899 416.798 55.5187 418.714 53.8434C423.295 49.8223 426.66 44.5998 428.431 38.7658C432.051 37.2484 435.799 35.1865 439.419 33.669C445 30.842 451.259 29.6287 457.492 30.1658L469.752 30.4001C473.382 30.4694 477.11 30.5583 480.466 31.9427C483.822 33.3271 486.772 36.3215 487.003 39.9462C487.073 40.3565 487.038 40.7779 486.9 41.1708C486.763 41.5636 486.528 41.9151 486.217 42.1922C485.743 42.451 485.206 42.5721 484.667 42.5418C481.282 42.6608 479.839 43.5046 476.453 43.6236Z" fill="#CBD0D6"/>
<path d="M604.851 114.743C610.499 114.743 615.078 110.163 615.078 104.512C615.078 98.8618 610.499 94.2812 604.851 94.2812C599.203 94.2812 594.625 98.8618 594.625 104.512C594.625 110.163 599.203 114.743 604.851 114.743Z" fill="#F23A78"/>
<path d="M378.739 82.0677C379.218 81.6141 379.562 81.0372 379.735 80.4004C379.908 79.7636 379.901 79.0915 379.717 78.458C378.551 78.008 377.283 77.8925 376.056 78.1244C374.828 78.3563 373.69 78.9265 372.768 79.7707C372.042 80.5056 371.416 81.3335 370.907 82.2327C369.296 84.8623 367.871 88.0032 368.805 90.9425C368.881 91.2631 369.02 91.5652 369.214 91.8311C369.409 92.0971 369.654 92.3215 369.937 92.4913C370.355 92.6593 370.806 92.73 371.256 92.6981C373.031 92.6957 374.804 92.5866 376.565 92.3711C377.647 92.2388 378.904 91.9331 379.322 90.9262C379.871 89.6025 378.541 88.1045 378.929 86.7247C379.184 86.1077 379.571 85.5538 380.062 85.1016C380.305 84.874 380.493 84.5926 380.609 84.2799C380.725 83.9672 380.766 83.6318 380.73 83.3002C380.573 82.6528 379.582 82.2855 379.226 82.848" fill="#CBD0D6"/>
<path d="M387.94 70.1269C386.363 69.7647 384.738 69.6626 383.128 69.8246C382.772 69.814 382.42 69.8942 382.103 70.0577C381.796 70.2839 381.574 70.606 381.471 70.973C381.131 72.0646 381.215 73.2442 381.705 74.2769C382.196 75.3096 383.057 76.1195 384.118 76.5455C384.696 76.6784 385.249 76.901 385.759 77.2052C387.119 78.2614 386.252 80.4204 386.509 82.1241C386.799 84.0372 388.65 85.643 388.31 87.5479C388.043 89.0486 386.441 90.2368 386.699 91.7392C386.969 93.3127 388.965 93.7855 390.556 93.9115C391.478 94.0731 392.427 93.9643 393.288 93.5983C394.152 93.0075 394.766 92.1176 395.012 91.1005C395.663 89.161 395.937 87.1146 395.818 85.072C395.811 84.143 395.578 83.2297 395.139 82.4112C394.66 81.7628 394.129 81.1545 393.551 80.5922C390.503 77.0453 393.712 71.7545 387.94 70.1269Z" fill="#CBD0D6"/>
<path d="M124.742 104.212C130.39 104.212 134.968 99.6313 134.968 93.9809C134.968 88.3305 130.39 83.75 124.742 83.75C119.094 83.75 114.516 88.3305 114.516 93.9809C114.516 99.6313 119.094 104.212 124.742 104.212Z" fill="#4EE2BE"/>
<path d="M217.133 322.938C222.78 322.938 227.359 318.358 227.359 312.708C227.359 307.057 222.78 302.477 217.133 302.477C211.485 302.477 206.906 307.057 206.906 312.708C206.906 318.358 211.485 322.938 217.133 322.938Z" fill="#F23A78"/>
<path d="M788.742 358.212C794.39 358.212 798.968 353.631 798.968 347.981C798.968 342.331 794.39 337.75 788.742 337.75C783.094 337.75 778.516 342.331 778.516 347.981C778.516 353.631 783.094 358.212 788.742 358.212Z" fill="#4EE2BE"/>
<path d="M454.797 249.563C460.444 249.563 465.023 244.983 465.023 239.332C465.023 233.682 460.444 229.102 454.797 229.102C449.149 229.102 444.57 233.682 444.57 239.332C444.57 244.983 449.149 249.563 454.797 249.563Z" fill="#F6B156"/>
</svg>
