<svg width="100" height="100" viewBox="0 0 100 100" fill="none" xmlns="http://www.w3.org/2000/svg">
<circle cx="50" cy="50" r="49.5" stroke="#6745CF"/>
<circle cx="75.9974" cy="8.66927" r="3.33333" fill="#874CC4"/>
<circle cx="21.3333" cy="89.9974" r="3.33333" fill="#874CC4"/>
<path d="M67.5625 41H33.4375C32.0913 41 31 39.6568 31 38V32C31 30.3432 32.0913 29 33.4375 29H67.5625C68.9087 29 70 30.3432 70 32V38C70 39.6568 68.9087 41 67.5625 41ZM63.9062 32.75C62.8966 32.75 62.0781 33.7573 62.0781 35C62.0781 36.2427 62.8966 37.25 63.9062 37.25C64.9159 37.25 65.7344 36.2427 65.7344 35C65.7344 33.7573 64.9159 32.75 63.9062 32.75ZM59.0312 32.75C58.0216 32.75 57.2031 33.7573 57.2031 35C57.2031 36.2427 58.0216 37.25 59.0312 37.25C60.0409 37.25 60.8594 36.2427 60.8594 35C60.8594 33.7573 60.0409 32.75 59.0312 32.75ZM67.5625 56H33.4375C32.0913 56 31 54.6568 31 53V47C31 45.3432 32.0913 44 33.4375 44H67.5625C68.9087 44 70 45.3432 70 47V53C70 54.6568 68.9087 56 67.5625 56ZM63.9062 47.75C62.8966 47.75 62.0781 48.7573 62.0781 50C62.0781 51.2427 62.8966 52.25 63.9062 52.25C64.9159 52.25 65.7344 51.2427 65.7344 50C65.7344 48.7573 64.9159 47.75 63.9062 47.75ZM59.0312 47.75C58.0216 47.75 57.2031 48.7573 57.2031 50C57.2031 51.2427 58.0216 52.25 59.0312 52.25C60.0409 52.25 60.8594 51.2427 60.8594 50C60.8594 48.7573 60.0409 47.75 59.0312 47.75ZM67.5625 71H33.4375C32.0913 71 31 69.6568 31 68V62C31 60.3432 32.0913 59 33.4375 59H67.5625C68.9087 59 70 60.3432 70 62V68C70 69.6568 68.9087 71 67.5625 71ZM63.9062 62.75C62.8966 62.75 62.0781 63.7573 62.0781 65C62.0781 66.2427 62.8966 67.25 63.9062 67.25C64.9159 67.25 65.7344 66.2427 65.7344 65C65.7344 63.7573 64.9159 62.75 63.9062 62.75ZM59.0312 62.75C58.0216 62.75 57.2031 63.7573 57.2031 65C57.2031 66.2427 58.0216 67.25 59.0312 67.25C60.0409 67.25 60.8594 66.2427 60.8594 65C60.8594 63.7573 60.0409 62.75 59.0312 62.75Z" fill="#6745CF"/>
</svg>
