<svg width="100" height="100" viewBox="0 0 100 100" fill="none" xmlns="http://www.w3.org/2000/svg">
<circle cx="50" cy="50" r="49.5" stroke="#4EE2BE"/>
<circle cx="75.9974" cy="8.66927" r="3.33333" fill="#4EE2BE"/>
<circle cx="21.3333" cy="89.9974" r="3.33333" fill="#4EE2BE"/>
<path d="M76.1 29H23.9C22.2987 29 21 30.5673 21 32.5V67.5C21 69.4327 22.2987 71 23.9 71H76.1C77.7013 71 79 69.4327 79 67.5V32.5C79 30.5673 77.7013 29 76.1 29ZM25.35 65.75V58.75C28.5536 58.75 31.15 61.8836 31.15 65.75H25.35ZM25.35 41.25V34.25H31.15C31.15 38.1164 28.5536 41.25 25.35 41.25ZM50 60.5C45.9953 60.5 42.75 55.798 42.75 50C42.75 44.2009 45.9962 39.5 50 39.5C54.0038 39.5 57.25 44.2009 57.25 50C57.25 55.8002 54.0029 60.5 50 60.5ZM74.65 65.75H68.85C68.85 61.8836 71.4464 58.75 74.65 58.75V65.75ZM74.65 41.25C71.4464 41.25 68.85 38.1164 68.85 34.25H74.65V41.25Z" fill="#4EE2BE"/>
</svg>
